<?xml version="1.0" encoding="utf-8"?>
<!-- Generator: Adobe Illustrator 15.0.0, SVG Export Plug-In . SVG Version: 6.00 Build 0)  -->
<!DOCTYPE svg PUBLIC "-//W3C//DTD SVG 1.1//EN" "http://www.w3.org/Graphics/SVG/1.1/DTD/svg11.dtd">
<svg version="1.1" id="_x31_20x120" xmlns="http://www.w3.org/2000/svg" xmlns:xlink="http://www.w3.org/1999/xlink" x="0px"
	 y="0px" width="800px" height="800px" viewBox="0 0 800 800" enable-background="new 0 0 800 800" xml:space="preserve">
<radialGradient id="SVGID_1_" cx="401.1162" cy="399.981" r="384.5857" gradientTransform="matrix(1 0 0 -0.9934 0 797.2724)" gradientUnits="userSpaceOnUse">
	<stop  offset="0" style="stop-color:#212121"/>
	<stop  offset="0.3385" style="stop-color:#1C1C1C"/>
	<stop  offset="0.7218" style="stop-color:#0F0F0F"/>
	<stop  offset="1" style="stop-color:#000000"/>
</radialGradient>
<path fill="url(#SVGID_1_)" d="M785.698,718.306c0,35.169-28.704,63.678-64.095,63.678H80.63c-35.4,0-64.096-28.511-64.096-63.678
	V81.555c0-35.167,28.694-63.674,64.096-63.674h640.974c35.391,0,64.095,28.507,64.095,63.674V718.306z"/>
<linearGradient id="SVGID_2_" gradientUnits="userSpaceOnUse" x1="449.3008" y1="386.1133" x2="551.6612" y2="348.8571" gradientTransform="matrix(1 0 0 -1 0 801)">
	<stop  offset="0.3497" style="stop-color:#FF0000"/>
	<stop  offset="1" style="stop-color:#750000"/>
</linearGradient>
<path fill="url(#SVGID_2_)" d="M516.676,422.155c-1.68-2.608-3.974-4.695-6.586-6.276c-5.901-22.802-9.594-44.447-9.594-44.447
	s-4.105,21.86-9.723,44.498c-2.531,1.55-4.765,3.586-6.417,6.121c-23.098,5.991-41.818,11.414-41.818,11.414
	s18.703,5.491,41.818,11.533c1.627,2.515,3.886,4.579,6.417,6.126c5.617,22.636,9.723,44.485,9.723,44.485
	s3.692-21.625,9.594-44.438c2.615-1.584,4.908-3.675,6.586-6.291c23.322-6.292,41.783-11.415,41.783-11.415
	S539.994,428.417,516.676,422.155z"/>
<linearGradient id="SVGID_3_" gradientUnits="userSpaceOnUse" x1="526.0273" y1="450.1465" x2="572.7863" y2="433.1278" gradientTransform="matrix(1 0 0 -1 0 801)">
	<stop  offset="0.3497" style="stop-color:#FF0000"/>
	<stop  offset="1" style="stop-color:#750000"/>
</linearGradient>
<path fill="url(#SVGID_3_)" d="M556.805,354.173c-0.76-1.189-1.811-2.14-3.008-2.863c-2.698-10.423-4.374-20.307-4.374-20.307
	s-1.886,9.985-4.449,20.33c-1.159,0.705-2.176,1.635-2.939,2.794c-10.549,2.742-19.097,5.216-19.097,5.216s8.539,2.509,19.097,5.269
	c0.749,1.148,1.78,2.092,2.939,2.798c2.562,10.343,4.449,20.325,4.449,20.325s1.678-9.881,4.374-20.302
	c1.197-0.719,2.249-1.68,3.008-2.872c10.653-2.88,19.086-5.215,19.086-5.215S567.458,357.035,556.805,354.173z"/>
<linearGradient id="SVGID_4_" gradientUnits="userSpaceOnUse" x1="572.2041" y1="417.2305" x2="611.9887" y2="402.75" gradientTransform="matrix(1 0 0 -1 0 801)">
	<stop  offset="0.3497" style="stop-color:#FF0000"/>
	<stop  offset="1" style="stop-color:#750000"/>
</linearGradient>
<path fill="url(#SVGID_4_)" d="M598.396,386.591c-0.66-1.011-1.551-1.825-2.57-2.435c-2.294-8.87-3.72-17.281-3.72-17.281
	s-1.6,8.495-3.781,17.293c-0.993,0.611-1.86,1.396-2.506,2.384c-8.974,2.334-16.244,4.438-16.244,4.438s7.267,2.135,16.244,4.48
	c0.646,0.98,1.513,1.787,2.506,2.385c2.182,8.801,3.781,17.294,3.781,17.294s1.426-8.41,3.72-17.276
	c1.02-0.616,1.91-1.424,2.57-2.444c9.062-2.445,16.233-4.438,16.233-4.438S607.451,389.025,598.396,386.591z"/>
<linearGradient id="SVGID_5_" gradientUnits="userSpaceOnUse" x1="-43.4731" y1="521.9395" x2="175.349" y2="52.6738" gradientTransform="matrix(0.6468 -0.6468 -0.6597 -0.6597 435.0277 790.9526)">
	<stop  offset="0.3497" style="stop-color:#FF0000"/>
	<stop  offset="1" style="stop-color:#750000"/>
</linearGradient>
<path fill="url(#SVGID_5_)" d="M118.879,528.129c9-10.754,68.499-275.537,68.499-275.537s66.686,267.718,73.947,276.939
	c7.262,9.211,265.262,76.979,265.262,76.979s-254.437,63.165-263.79,71.769c-3.641,3.348-14.802,45.729-27.089,96.279
	c-33.997-0.334-58.479,1.618-85.813,1.351c-13.484-51.665-25.758-95.391-29.542-99.033c-3.538-3.407-40.248-14.696-85.292-27.615
	c-0.401-40.319-0.488-49.076-0.936-94.424C79.019,542.831,115.572,532.08,118.879,528.129z"/>
<linearGradient id="SVGID_6_" gradientUnits="userSpaceOnUse" x1="380.3154" y1="623.6084" x2="531.224" y2="299.9839" gradientTransform="matrix(0.7071 -0.7071 -0.7071 -0.7071 438.619 823.6823)">
	<stop  offset="0.3497" style="stop-color:#FF0000"/>
	<stop  offset="1" style="stop-color:#750000"/>
</linearGradient>
<path fill="url(#SVGID_6_)" d="M404.318,104.586c2.71-3.22,13.683-46.157,23.496-86.214c16.397-0.65,21.278-0.65,33.921-0.009
	c9.995,40.289,21.056,83.494,23.188,86.223c4.065,5.173,149.692,42.089,149.692,42.089s-144.345,37.166-149.692,42.09
	c-5.345,4.925-40.298,156.319-40.298,156.319s-34.914-151.123-40.308-156.319c-5.386-5.194-149.694-42.09-149.694-42.09
	S399.163,110.719,404.318,104.586z"/>
<linearGradient id="SVGID_7_" gradientUnits="userSpaceOnUse" x1="507.6084" y1="246.4995" x2="577.955" y2="95.6409" gradientTransform="matrix(0.7071 -0.7071 -0.7071 -0.7071 438.619 823.6823)">
	<stop  offset="0.3497" style="stop-color:#FF0000"/>
	<stop  offset="1" style="stop-color:#750000"/>
</linearGradient>
<path fill="url(#SVGID_7_)" d="M701.649,302.128c3.168-3.774,24.791-96.147,24.791-96.147s22.289,92.968,24.791,96.147
	c0.922,1.176,13.663,4.998,29.393,9.353c0.004,15.9,0.004,17.552,0.014,33.228c-15.562,4.325-28.2,8.086-29.406,9.193
	c-3.287,3.03-24.791,96.143-24.791,96.143s-21.481-92.949-24.791-96.143c-3.314-3.192-92.072-25.885-92.072-25.885
	S698.478,305.9,701.649,302.128z"/>
<linearGradient id="SVGID_8_" gradientUnits="userSpaceOnUse" x1="304.2969" y1="177.1182" x2="379.1539" y2="16.5866" gradientTransform="matrix(0.7071 -0.7071 -0.7071 -0.7071 438.619 823.6823)">
	<stop  offset="0.3497" style="stop-color:#FF0000"/>
	<stop  offset="1" style="stop-color:#750000"/>
</linearGradient>
<path fill="url(#SVGID_8_)" d="M591.775,492.685c2.557-3.035,19.998-77.538,19.998-77.538s17.974,74.972,19.986,77.538
	c2.014,2.57,74.256,20.879,74.256,20.879s-71.605,18.438-74.256,20.875c-2.65,2.448-19.986,77.545-19.986,77.545
	s-17.329-74.965-19.998-77.545c-2.677-2.569-74.252-20.875-74.252-20.875S589.22,495.728,591.775,492.685z"/>
<linearGradient id="SVGID_9_" gradientUnits="userSpaceOnUse" x1="455.7998" y1="383.1611" x2="217.3013" y2="872.1556" gradientTransform="matrix(1 0 0 -1 0 801)">
	<stop  offset="0.411" style="stop-color:#757575"/>
	<stop  offset="0.5254" style="stop-color:#595959"/>
	<stop  offset="0.7413" style="stop-color:#292929"/>
	<stop  offset="0.9065" style="stop-color:#0B0B0B"/>
	<stop  offset="1" style="stop-color:#000000"/>
</linearGradient>
<path opacity="0.27" fill="url(#SVGID_9_)" enable-background="new    " d="M797.771,85.666c0-43.536-29.723-83.835-74.451-83.835
	H90.421c-54.311,0-82.643,36.46-82.643,89.827v462.804c110.441-5.16,238.051-36.558,364.01-95.782
	c191.925-90.233,346.457-225.901,425.983-362.123V85.666L797.771,85.666z"/>
<path fill="#8C1111" d="M717.587,798.512H87.173c-43.875,0-79.567-35.975-79.567-80.207V81.56c0-44.223,35.692-80.205,79.567-80.205
	h630.414c43.876,0,79.569,35.982,79.569,80.205v636.742C797.156,762.537,761.463,798.512,717.587,798.512z M87.173,34.408
	c-25.649,0-46.513,21.151-46.513,47.149v636.744c0,25.999,20.866,47.151,46.513,47.151h630.414
	c25.649,0,46.514-21.153,46.514-47.151V81.56c0-26-20.865-47.15-46.514-47.15H87.173V34.408z"/>
</svg>
